# xmcd CD database file
#
# Track frame offsets:
#	150
#	12241
#	26502
#	38740
#	50117
#	62015
#	75248
#	86583
#	97575
#	108687
#	123166
#	136613
#	163078
#	183067
#	211051
#	241801
#
# Disc length: 3687 seconds
#
# Revision: 1
# Processed by: cddbd v1.5.2PL0 Copyright (c) Steve Scherf et al.
# Submitted via: CDex 1.70beta2
#
DISCID=b80e6510
DTITLE=Sidney Bechet - Petite Fleur - CD 3
DYEAR=2005
DGENRE=Jazz
TTITLE0=I Can't Belive Thau You Are In Love With Me
TTITLE1=Wrap Your Troubles In Dreams
TTITLE2=It Had To Be You
TTITLE3=Baby Won't You Please Come Home
TTITLE4=Plase Don't Talk About Me When I'm Gone
TTITLE5=Ooh Boogie
TTITLE6=After You've Gone
TTITLE7=I'm Goin' Way Down Home
TTITLE8=Margie
TTITLE9=Dutch Swing College Blues
TTITLE10=King Porter Stomp
TTITLE11=Crazy Rhythm
TTITLE12=Jazz Me Blues
TTITLE13=Indiana
TTITLE14=Bugle Blues
TTITLE15=On The Sunny Side Of The Street
EXTD=YEAR: 2005
EXTT0=
EXTT1=
EXTT2=
EXTT3=
EXTT4=
EXTT5=
EXTT6=
EXTT7=
EXTT8=
EXTT9=
EXTT10=
EXTT11=
EXTT12=
EXTT13=
EXTT14=
EXTT15=
PLAYORDER=
